<svg width="18" height="18" viewBox="0 0 18 18" fill="none" xmlns="http://www.w3.org/2000/svg">
<path d="M9 18C13.9706 18 18 13.9706 18 9C18 4.02944 13.9706 0 9 0C4.02944 0 0 4.02944 0 9C0 13.9706 4.02944 18 9 18Z" fill="#0AC18E"/>
<path d="M11.8074 5.97794C11.3551 4.9523 10.3157 4.73301 9.0434 4.94545L8.63452 3.36017L7.67056 3.60915L8.07259 5.18986C7.81904 5.25382 7.55863 5.30865 7.30051 5.38174L6.89848 3.81017L5.93452 4.05915L6.34341 5.64443C6.13554 5.70382 4.39722 6.14925 4.39722 6.14925L4.66219 7.18174C4.66219 7.18174 5.37031 6.98301 5.36346 6.999C5.75635 6.89621 5.94138 7.09266 6.02818 7.27768L7.15203 11.6224C7.16574 11.748 7.1429 11.9627 6.87335 12.0358C6.88934 12.0449 6.17209 12.2163 6.17209 12.2163L6.27716 13.4201C6.27716 13.4201 7.9995 12.9792 8.22564 12.9221L8.63909 14.5257L9.60305 14.2767L9.18959 12.6617C9.45457 12.6 9.71269 12.5361 9.96396 12.4698L10.3751 14.0757L11.3391 13.8267L10.9256 12.2254C12.4104 11.8645 13.4589 10.9279 13.2442 9.4957C13.1071 8.63225 12.1637 7.92413 11.3802 7.84418C11.8622 7.41702 12.1066 6.79342 11.8074 5.97794ZM11.3437 9.75839C11.5355 11.1769 9.56421 11.3505 8.9132 11.5218L8.3467 9.39976C9 9.22844 11.0193 8.5089 11.3437 9.75839ZM10.1558 6.8688C10.3591 8.12971 8.67335 8.2759 8.1297 8.41524L7.61345 6.48961C8.15939 6.35484 9.74239 5.70154 10.1558 6.8688Z" fill="white"/>
</svg>
