<svg width="9" height="9" viewBox="0 0 9 9" fill="none"
    xmlns="http://www.w3.org/2000/svg">
    <g clip-path="url(#clip0_6_48)">
        <path d="M5.03078 3.46674H1.51768C1.13019 3.46674 0.815063 3.7757 0.815063 4.15562V7.60007C0.815063 7.97999 1.13019 8.28896 1.51768 8.28896H5.03078C5.41828 8.28896 5.7334 7.97999 5.7334 7.60007V4.15562C5.7334 3.7757 5.41828 3.46674 5.03078 3.46674Z" fill="#FFF"/>
        <path d="M7.13857 1.40009H3.62547C3.23762 1.40009 2.92285 1.70871 2.92285 2.08897V2.77786H3.27416H5.73333C6.12117 2.77786 6.43595 3.08649 6.43595 3.46675V5.87786V6.22231H7.13857C7.52641 6.22231 7.84119 5.91369 7.84119 5.53342V2.08897C7.84119 1.70871 7.52641 1.40009 7.13857 1.40009Z" fill="#FFF"/>
    </g>
    <defs>
        <clipPath id="clip0_6_48">
            <rect width="8.43143" height="8.26667" fill="white" transform="translate(0.112427 0.711182)"/>
        </clipPath>
    </defs>
</svg>
