<svg width="19" height="18" fill="none" xmlns="http://www.w3.org/2000/svg">
  <path d="M9.505 17.972c4.945 0 8.953-4.011 8.953-8.96 0-4.948-4.008-8.96-8.953-8.96C4.56.052.551 4.064.551 9.012c0 4.949 4.009 8.96 8.954 8.96Z" fill="#627EEA"/>
  <path d="M9.784 2.291v4.967l4.195 1.877L9.784 2.29Z" fill="#fff" fill-opacity=".602"/>
  <path d="M9.784 2.291 5.589 9.135l4.195-1.877V2.291Z" fill="#fff"/>
  <path d="M9.784 12.353v3.376l4.198-5.813-4.198 2.437Z" fill="#fff" fill-opacity=".602"/>
  <path d="M9.784 15.729v-3.376L5.589 9.916l4.195 5.813Z" fill="#fff"/>
  <path d="m9.784 11.572 4.195-2.437-4.195-1.877v4.314Z" fill="#fff" fill-opacity=".2"/>
  <path d="m5.589 9.135 4.195 2.437V7.258L5.589 9.135Z" fill="#fff" fill-opacity=".602"/>
</svg>
