<svg width="18" height="18" viewBox="0 0 18 18" fill="none" xmlns="http://www.w3.org/2000/svg">
<g clip-path="url(#clip0_121_53)">
<path d="M9 17.0259C13.4326 17.0259 17.0259 13.4326 17.0259 9C17.0259 4.56741 13.4326 0.974091 9 0.974091C4.56741 0.974091 0.974091 4.56741 0.974091 9C0.974091 13.4326 4.56741 17.0259 9 17.0259Z" fill="white"/>
<path d="M8.99997 0C7.21994 0 5.47988 0.527841 3.99984 1.51677C2.5198 2.50571 1.36625 3.91131 0.685058 5.55585C0.00386901 7.20038 -0.174361 9.00998 0.172906 10.7558C0.520173 12.5016 1.37734 14.1053 2.63601 15.364C3.89469 16.6226 5.49833 17.4798 7.24416 17.8271C8.98999 18.1743 10.7996 17.9961 12.4441 17.3149C14.0887 16.6337 15.4943 15.4802 16.4832 14.0001C17.4721 12.5201 18 10.78 18 9V9C18.0034 7.82154 17.7747 6.65393 17.3269 5.56386C16.8791 4.47379 16.221 3.48259 15.3901 2.64686C14.5592 1.81113 13.5719 1.14724 12.4844 0.693091C11.397 0.238942 10.2307 0.00342908 9.05228 0H8.99997ZM9.15252 9.30508L8.21547 12.4649H13.2276C13.2608 12.4637 13.2939 12.4691 13.325 12.4808C13.3561 12.4924 13.3846 12.5101 13.4089 12.5327C13.4332 12.5554 13.4528 12.5826 13.4665 12.6129C13.4803 12.6431 13.488 12.6758 13.4891 12.709V12.7918L13.0532 14.2954C13.034 14.3665 12.9912 14.429 12.9318 14.4725C12.8724 14.5161 12.8 14.5382 12.7264 14.5351H5.05566L6.34138 10.155L4.90312 10.5908L5.23 9.58838L6.66826 9.15254L8.47697 3.00726C8.49688 2.93656 8.53988 2.87454 8.59912 2.8311C8.65836 2.78766 8.73043 2.76529 8.80385 2.76755H10.7433C10.7765 2.76639 10.8096 2.77178 10.8407 2.78342C10.8719 2.79506 10.9004 2.81272 10.9247 2.83538C10.9489 2.85805 10.9685 2.88528 10.9823 2.91552C10.996 2.94576 11.0037 2.97842 11.0048 3.01162V3.09443L9.47939 8.28087L10.9177 7.84504L10.6126 8.89104L9.15252 9.30508Z" fill="#345D9D"/>
</g>
<defs>
<clipPath id="clip0_121_53">
<rect width="18" height="18" fill="white"/>
</clipPath>
</defs>
</svg>
