<svg xml:space="preserve" width="1200" height="1200" xmlns="http://www.w3.org/2000/svg"><path fill="#1d1d1d" d="M617.347 293.585c.451-.482.903-.964 1.954-1.59 1.415-1.241 2.23-2.341 3.045-3.44.445-.474.89-.947 1.922-1.58 1.085-.92 1.583-1.678 2.081-2.438.085-.202.212-.372.921-.605 1.05-.88 1.561-1.665 2.072-2.45.76-.769 1.52-1.538 2.836-2.446a14.484 14.484 0 0 0 2.155-1.113s.005-.07.321-.263c.44-.848.56-1.503.682-2.159 1.1-1.1 2.2-2.2 3.918-3.491 1.112-.941 1.604-1.69 2.095-2.44.112-.213.268-.389.993-.643 1.024-.85 1.521-1.583 2.018-2.317.434-.49.868-.98 1.863-1.614 1.09-.788 1.616-1.431 2.144-2.074 0 0 .018-.023.27-.168.415-.473.58-.8.743-1.127.105-.227.26-.415.966-.68 1.015-.76 1.525-1.405 2.035-2.05 0 0 .027.013.235-.101.48-.318.67-.58.783-.9 0 0 .026.033.237-.117.395-.46.58-.768.764-1.077.445-.515.89-1.03 1.915-1.718 1.08-1.117 1.58-2.061 2.08-3.006 2.9-2.405 6.028-4.583 8.656-7.255 10.386-10.558 20.498-21.386 30.927-31.901 19.361-19.52 38.872-38.893 58.323-58.324 11.013-11.001 22.067-21.961 33.028-33.014 3.466-3.495 6.686-7.233 10.055-11.206 48.057-.346 96.078-.346 144.69-.137.806.472 1.07.656 1.39.763 0 0-.046.03.02.351.795.753 1.524 1.185 2.252 1.617.491.438.982.876 1.631 1.894.885 1.091 1.61 1.603 2.336 2.115.224.09.414.228.74.838.438.67.705.917.972 1.164 0 0 .043.004.128.247.266.53.525.695.861.738 0 0 .071.004.072.363.651.789 1.301 1.22 1.951 1.65 0 0 .026.013.055.366.743.781 1.456 1.21 2.17 1.64.482.143.963.287 1.635.952.833 1.024 1.475 1.527 2.116 2.03 0 0 .076.008.048.34.31.77.647 1.21.984 1.651 0 0 .048.012.242.297.816.427 1.44.57 2.061.712.22.09.406.228.67.938.852 1.04 1.592 1.552 2.333 2.065.222.096.407.24.663.935.755 1.034 1.403 1.561 2.05 2.089 0 0-.016-.005-.028.31.71 1.08 1.432 1.845 2.154 2.609 5.164 4.434 10.328 8.87 15.71 13.95 1.011 1.132 1.805 1.617 2.598 2.102.19.063.343.174.522.833.705 1.056 1.35 1.613 1.994 2.17 0 0 .07.004.1.395.812.794 1.595 1.198 2.377 1.602.19.062.346.172.541.867.87 1.067 1.664 1.599 2.458 2.13 1.416 1.378 2.833 2.755 4.417 4.776 1.293 1.502 2.42 2.36 3.545 3.218.46.418.92.837 1.511 1.815.774 1.106 1.418 1.654 2.062 2.201 0 0 .058.009.044.332.316.771.647 1.22.98 1.668 0 0 .024.017.068.343.668.765 1.293 1.205 1.918 1.645 0 0 .055.006.073.388 1.142 2.2 2.105 4.144 3.415 5.816 6.16 7.854 11.7 16.026 20.756 21.45 5.597 3.353 9.605 9.421 14.174 14.41 3.975 4.34 7.154 9.653 11.762 13.093 4.144 3.093 5.938 6.374 5.782 11.113-.223 6.799-.879 13.594-.849 20.389.04 9.061.8 18.12.832 27.18.11 32.147.043 64.294.043 96.44 4.24-3.446 5.68-7.361 4.836-12.102-.492-2.76-.829-5.6-.785-8.397.238-15.09.744-30.177.911-45.267.168-15.157-.017-30.319.14-45.476.018-1.664 1.271-3.316 1.951-4.974-.015 36.68-.088 73.361.038 110.04.013 4.005-1.223 6.8-4.03 9.592-16.337 16.241-32.46 32.695-48.738 48.997-9.212 9.226-18.667 18.21-27.845 27.47-6.747 6.806-13.078 14.026-19.859 20.797-7.333 7.322-15.043 14.264-22.446 21.517-2.676 2.623-4.94 5.665-7.91 8.479-.75.428-.982.894-1.214 1.36-1.75 1.819-3.502 3.638-5.879 5.664-1.124.923-1.622 1.638-2.12 2.352-.109.236-.265.433-.996.727-1.03 1.09-1.537 2.045-2.043 3-11.165 11.102-22.329 22.206-33.495 33.307-15.817 15.725-31.592 31.494-47.474 47.153-7.174 7.074-14.519 13.977-21.904 20.832-1.065.99-2.79 1.797-4.21 1.798-47.47.043-94.94-.038-142.41-.055-7.3-.003-14.119-.909-18.765-8.444.128-2.117.233-4.079 1.258-5.2 3.575-3.912 7.506-7.497 11.236-11.271 17.856-18.069 35.654-36.196 53.553-54.222 6.3-6.346 12.83-12.464 19.67-18.723 1.792-.076 3.172-.115 5.01-.175 4.917-.311 9.38-.866 13.836-.83 6.295.052 12.584.642 18.88.771 1.534.032 3.527-.375 4.563-1.363 11.782-11.234 23.542-22.497 35.062-34 11.84-11.822 23.325-23.997 35.125-35.86 7.017-7.055 14.424-13.719 21.503-20.715 7.76-7.668 15.312-15.547 23.015-23.274 6.198-6.217 12.562-12.27 18.715-18.531 7.39-7.521 14.505-15.318 21.977-22.755 9.272-9.23 19.128-17.901 28.02-27.475 3.13-3.373 7.931-6.122 7.885-12.091-.164-21.318.02-42.638-.162-63.956-.024-2.848-.697-6.192-2.304-8.412-2.677-3.695-6.262-6.764-9.625-9.927-15.357-14.444-30.766-28.834-46.166-43.232-5.626-5.26-11.81-7.826-20.007-7.551-20.13.674-40.3.339-60.45.12-4.217-.047-7.206 1.185-10.04 4.218-4.526 4.847-9.436 9.335-14.368 13.85-.422.329-.66.784-1.03 1.463-.635.687-1.14 1.149-2.01 1.648-.857.768-1.349 1.5-2.025 2.491-2.68 2.66-5.176 5.059-8.026 7.505-.835.77-1.315 1.494-1.885 2.373-.243.35-.433.492-.93.678-.52.367-.77.64-1.02.888.001-.025.034.013-.285.06-.787.69-1.255 1.333-1.942 2.228a6874.634 6874.634 0 0 1-28.969 28.824c-.48.343-.68.604-.815.89 0-.027.048-.001-.288.06-.778.779-1.22 1.497-1.752 2.37-.242.35-.433.492-.947.703-.52.449-.757.777-1.156 1.365a80.684 80.684 0 0 1-4.838 4.637c-.524.455-.76.788-1.162 1.38a86.265 86.265 0 0 1-4.872 4.604c-.507.414-.745.714-1.207 1.254-8.952 9.09-17.617 18.003-26.428 26.77a3834.402 3834.402 0 0 1-39.705 38.916c-.75.786-1.17 1.507-1.744 2.46a28.948 28.948 0 0 1-2.879 2.617c-.525.455-.762.79-1.128 1.342-.629.662-1.129 1.106-1.975 1.577-.86.676-1.378 1.326-1.91 1.952-.014-.024.036.001-.298.059-.778.766-1.222 1.475-1.76 2.344-.25.36-.448.506-.95.703-.513.388-.76.671-1.17 1.239-9.63 9.543-19.01 18.894-28.599 28.025-5.342 5.087-8.856 10.296-8.436 18.449.947 18.398.827 36.85.817 55.274-.546.947-.767 1.902-1.21 3.05-.303.37-.384.549-.712.759-.575.182-.777.433-1.163.922-8.874 8.7-17.5 17.2-25.99 25.84-9.876 10.051-19.63 20.224-29.678 30.575-10.06 10.536-19.875 20.842-29.97 31.313a636.1 636.1 0 0 0-5.927 4.213c.341-10.113.911-20.224.977-30.34.15-23.058.054-46.118.056-69.178.002-17.748.185-35.5-.06-53.244-.182-13.04-.965-26.07-1.407-39.106-.293-8.625 1.246-15.936 8.634-22.297 11.495-9.897 21.724-21.262 32.992-32.367.923-1.123 1.345-1.884 1.766-2.645.45-.47.897-.94 1.907-1.552 1.08-.788 1.598-1.434 2.116-2.08 0 0 .02-.015.323-.03.756-.33 1.21-.649 1.663-.967 0 0 .01-.037.282-.195.424-.706.578-1.254.73-1.803 0 0 .02-.015.346-.062.772-.684 1.218-1.32 1.665-1.957 0 0 .036.032.368-.035.757-.805 1.18-1.543 1.605-2.28 1.086-1.126 2.172-2.25 3.88-3.568 1.12-.951 1.618-1.71 2.117-2.47.772-.789 1.545-1.578 2.922-2.548 1.1-.92 1.593-1.659 2.088-2.397.765-.808 1.53-1.615 2.858-2.572 1.09-.47 1.618-.792 2.145-1.113 0 0 .015-.027.294-.23.417-.836.555-1.469.693-2.102z"/><path fill="#1d1c1c" d="M334.367 608.665c.108-.237.267-.433.974-.694a12.382 12.382 0 0 0 2.077-1.143c5.956-6.104 11.941-12.179 17.854-18.324 3.274-3.402 6.25-7.113 9.71-10.305 1.67-1.54 4.144-3.12 6.261-3.128 44.155-.181 88.312-.203 132.47.015 2.635.013 5.702 1.794 7.797 3.631 4.483 3.93 8.46 8.436 12.797 13.363-.878 2.351-1.909 4.045-3.282 5.817-.643.196-1.026.232-1.232.442-14.164 14.406-28.347 28.793-42.436 43.27-2.837 2.916-5.312 6.182-8.214 9.338-.42.35-.582.648-1.075 1.048-2.447 2.362-4.56 4.62-6.995 6.993-6.72 6.513-13.118 12.913-19.84 19.254-1.138.224-1.95.506-2.894.543-3.172-1.112-6.168-2.384-9.27-2.742a51.517 51.517 0 0 0-11.477-.027c-6.76.748-13.913.174-19.439 5.631-7.616 7.522-15.553 14.721-23.156 22.256-16.474 16.326-32.824 32.778-49.223 49.18-11.71 11.71-23.406 23.433-35.132 35.127-10.054 10.027-20.107 20.056-30.22 30.022-12.153 11.973-24.48 23.771-36.446 35.926-1.943 1.973-3.413 5.402-3.405 8.152.076 26.896.466 53.792.943 80.685.034 1.93.927 4.417 2.307 5.658 8.514 7.653 17.201 15.12 25.987 22.461 9.545 7.976 19.182 15.847 28.973 23.517 1.762 1.38 4.454 2.186 6.725 2.205 19.993.167 39.99.017 59.982.168 3.78.028 6.534-1.001 9.22-3.753 21.272-21.804 42.662-43.494 64.073-65.162 11.797-11.939 23.821-23.656 35.533-35.679 15.541-15.953 30.764-32.216 46.333-48.142 13.743-14.059 27.736-27.874 41.7-41.715 3.492-3.462 5.314-7.193 5.176-12.339-.33-12.32-.046-24.658-.153-36.987-.024-2.792-.633-5.58-.945-8.733 5.16-5.148 10.47-9.757 15.395-14.748 13.192-13.373 26.272-26.858 39.295-40.395 12.085-12.562 24.13-25.167 35.97-37.958 2.043-2.208 2.452-1.207 3.344.486-.004 56.6-.302 113.2.273 169.8.097 9.572-3.59 15.964-9.567 22.09-14.547 14.907-29.08 29.827-43.727 44.638-13.65 13.804-27.62 27.295-41.114 41.247-15.127 15.64-29.784 31.734-44.83 47.453-9.62 10.051-19.57 19.787-29.378 29.656-6.54 6.58-13.198 13.048-19.618 19.743-9.383 9.783-18.642 19.686-27.87 29.615-4.332 4.66-8.999 9.114-13.336 13.767-2.165 2.322-4.08 4.012-6.487 6.639-3.24 3.46-6.966 6.823-10.394 10.107-2.91 2.789-5.765 3.237-9.395 3.345-19.01-.12-38.938.32-56.56-.1-28.667-.277-55.038.135-80.936-.06-1.767-.013-3.796-1.243-5.087-2.526-22.786-22.25-53.173-49.262-62.765-57.897-9.964-9.311-25.82-24.288-36.518-34.716-6.343-6.183-13.612-12.52-20.37-18.692.04-23.143-.384-48.733-.333-67.053.092-11.126-.018-22.13 0-31v-59.53c3.566-3.278 7.131-6.087 11.065-9.313.626-.622.808-.88.914-1.192 0 0-.003.038.338-.035.764-.831 1.188-1.589 1.612-2.347.738-.78 1.476-1.56 2.797-2.496 1.131-.807 1.678-1.457 2.225-2.106l.374-.062c.767-.804 1.185-1.55 1.603-2.295.44-.474.878-.948 1.901-1.577 1.092-.9 1.6-1.645 2.107-2.39.434-.482.867-.964 1.895-1.601 1.094-.935 1.594-1.715 2.093-2.495.093-.191.225-.351.897-.56 1.045-.73 1.59-1.379 2.134-2.028 0 0 .026.015.328-.016.776-.372 1.248-.712 1.721-1.052 5.991-6.242 11.982-12.483 18.183-19.151a.978.978 0 0 1 .602-.515s.167-.247.596-.398c.826-.733 1.222-1.316 1.618-1.899 0 0 .013.071.298-.028.425-.52.566-.941.707-1.362.383-.453.766-.907 1.77-1.435 1.156-.902 1.69-1.73 2.225-2.556.012-.209.107-.368.842-.494 1.091-.854 1.624-1.691 2.157-2.529 1.015-1.086 2.03-2.172 3.64-3.347 1.156-.726 1.72-1.362 2.284-1.998 6.2-6.214 12.393-12.433 18.6-18.64 9.542-9.542 19.006-19.163 28.665-28.583 8.694-8.48 17.784-16.557 26.382-25.13 12.526-12.49 24.74-25.291 37.15-37.9 2.87-2.915 5.987-5.586 9.465-8.724.91-.99 1.345-1.626 1.78-2.262 0 0 .035.043.308.014.74-.348 1.205-.668 1.672-.988 0 0 .026-.005.273-.18.408-.724.57-1.272.731-1.819 0 0 .028.001.371-.028 1.1-1.002 1.858-1.976 2.615-2.95 0 0 .007-.059.38-.094.786-.771 1.202-1.506 1.617-2.241 2.072-2.12 4.145-4.241 6.864-6.57 1.14-.986 1.634-1.763 2.128-2.54a8.33 8.33 0 0 1 1.925-1.515c1.083-.872 1.592-1.59 2.101-2.31z"/><path fill="#2b2b2a" d="M945.457 110.663c-.313.137-.578-.047-.915-.519-.127-.209.373-.209.623-.209s.286.485.292.728z"/><path fill="#b3a1a4" d="m745.327 522.105-.004.006-.006.006-.004.006-.014.014-.004.002-.004.006c-2.643 1.838-5.442 3.859-7.828 6.287-8.492 8.643-16.71 17.56-25.283 26.121-10.204 10.19-20.787 20-30.984 30.195-11.112 11.11-21.95 22.494-32.947 33.721-6.265 6.396-12.65 12.671-18.904 19.078-25.893 26.531-51.9 52.954-77.557 79.713-9.74 10.16-18.692 21.077-27.85 31.781-.84.982-.56 2.925-.652 4.748 4.098-5.371 10.715-7.12 16.342-10.234 1.383-.765 4 .7 6.437.856 5.521-5.067 10.83-9.675 15.754-14.666 13.192-13.373 26.273-26.86 39.297-40.396 12.085-12.562 24.128-25.166 35.97-37.957.37-.401.661-.62.927-.782 0 0 .002-.005.004-.006l.017-.01.008-.008.04-.029c.003 0 .004-.002.007-.004l.036-.023c.011-.008.022-.018.037-.026a.113.113 0 0 1 .025-.017h.002l.004-.004.008-.008.02-.012.002-.002.006-.004c.006-.007.011-.018.017-.023.008-.008.016-.014.024-.026.011-.008.017-.016.025-.023l.012-.008.004-.002.002-.004c0-.002.003-.004.004-.006l.002-.004.006-.008c0-.001 0-.005.002-.006.011-.012.022-.02.03-.031.001-.002.01-.004.01-.006a.095.095 0 0 0 .016-.014l.012-.014c.006-.007.007-.01.008-.012l.002-.002.027-.025c.014-.016.034-.028.05-.04.015-.012.03-.027.048-.038l.043-.031c.015-.011.01-.002.014-.01l.05-.043c.021-.017.04-.026.063-.041l.05-.04a.702.702 0 0 0 .06-.042c.018-.016.041-.026.06-.041.023-.02.048-.036.074-.055.02-.015.044-.03.063-.045l.058-.047c.022-.017.04-.032.063-.047.013-.008.026-.022.04-.033.01-.004.01-.012.018-.016l.067-.047a.509.509 0 0 0 .05-.043.51.51 0 0 1 .061-.046l.053-.036.05-.033c.007-.004.014-.012.022-.015l.008-.008.018-.01c.017-.008.03-.02.044-.032l.038-.023a.084.084 0 0 1 .02-.014c.016-.011.035-.027.05-.039.017-.008.028-.018.043-.03.015-.015.034-.023.053-.038a.359.359 0 0 1 .054-.04c.016-.01.032-.017.047-.029.004 0 .01-.002.012-.004l.008-.008c.011-.011.022-.017.033-.025a2.145 2.145 0 0 0 .082-.064c.004 0 .008-.003.012-.006.004-.004.012-.008.015-.012a.976.976 0 0 1 .07-.049c.02-.014.042-.026.061-.041.02-.017.04-.028.063-.043.004 0 .005-.002.008-.004.004 0 .006-.008.008-.01.008-.008.018-.012.025-.02.014-.007.026-.013.041-.025a.09.09 0 0 0 .024-.017c.016-.013.01-.01.025-.02l-.006.012c.004-.004.008-.01.012-.012a.02.02 0 0 1 .008-.008v-.002l.006-.002h.002c.004-.002.008-.009.011-.012.008 0 .01-.006.018-.01l.016-.011.004-.002v-.002a.015.015 0 0 1 .008-.004.078.078 0 0 0-.018.02.587.587 0 0 0 .086-.07l.008-.005.033-.03c.02-.014.038-.028.057-.04l.006-.003a.703.703 0 0 1 .097-.078.213.213 0 0 1 .032-.023c.011-.01.023-.017.035-.025v-.002a.49.49 0 0 1 .011-.014c.026-.03.056-.054.086-.08.027-.021.05-.044.077-.067.015-.011.025-.024.037-.035.005-.004.01-.005.011-.006l.006-.006c.015-.014.03-.024.045-.039.022-.02.046-.038.07-.057.02-.018.042-.031.061-.05.02-.021.044-.04.067-.059l.021-.018c.003-.002.01-.003.012-.006l.05-.044c.042-.036.082-.076.124-.114.04-.038.084-.07.128-.103.008-.007.051-.034.055-.041.041-.037.086-.07.13-.104.007-.007.01-.007.013-.01l.012-.011s0-.003.002-.004c0-.002.003-.003.004-.006l.021-.018a7.94 7.94 0 0 1 .521-.447c.093-.073.192-.138.286-.21.074-.06.155-.111.234-.165.004 0 .008-.01.012-.012l.03.045.09-.059c.037-.028.08-.051.12-.074.06-.035.122-.065.183-.096l.082-.04.06-.075c.038-.038.072-.081.107-.123.026-.03.06-.055.085-.082a.932.932 0 0 0 .051-.058c.04-.044.076-.089.117-.131l.037-.035.02-.022c.064-.076.15-.127.227-.19a.067.067 0 0 0 .02-.015h-.005a.426.426 0 0 1 .053-.06c.021-.022.043-.04.066-.063.017-.015.032-.026.047-.037a.434.434 0 0 0 .057-.059c.056-.058.016-.016.088-.084.04-.04.085-.071.128-.11l.022-.022c.012-.016.028-.026.04-.038.057-.048.107-.106.16-.16.044-.037.076-.085.118-.125.022-.02.042-.041.065-.06.03-.024.065-.042.092-.069 0 0 0-.003.002-.004a.052.052 0 0 1 .011-.015c.008-.012.018-.018.026-.03.066-.067.132-.135.2-.2.065-.062.126-.13.19-.194.064-.068.125-.14.19-.21l.031-.032c.016-.019.03-.046.045-.065.038-.05.003-.007.06-.08.043-.05.085-.103.131-.15.02-.02.03-.028.036-.033v-.002l.004-.004.01-.01c.004-.004.01-.006.013-.014l.002-.004c.012-.015.018-.026.03-.037.03-.038.028-.035.072-.08.01-.01.02-.017.03-.026l.005-.004.004-.004c.012-.011.024-.025.037-.035l.022-.021c.04-.048.085-.093.13-.137.058-.062.121-.12.18-.184.021-.028-.027.026 0 0 5.632-6.125 9.017-9.804 14.73-14.885.07-.06.12-.095.196-.148a1.15 1.15 0 0 0 .107-.12c.107-.115.216-.211.342-.308.008-.008.018-.01.03-.018.003 0 .007-.004.007-.002.08-.079.164-.152.254-.22.091-.113.186-.224.3-.313a3.54 3.54 0 0 1 .263-.183l.226-.233a2.34 2.34 0 0 1 .45-.36l.09-.083c.095-.084.203-.169.294-.24.116-.099.25-.241.4-.33.004-.004.104-.085.038-.018-.045.045-.098.147.078-.08.09-.075.178-.156.277-.22.098-.107.202-.205.307-.304l.136-.119a.088.088 0 0 0 .006-.01c.075-.082.133-.184.217-.254.001 0 .003 0 .004-.002.091-.126.19-.247.303-.353.05-.05.102-.095.143-.152a4.84 4.84 0 0 1 .257-.327c.008-.01.015-.028.03-.03.002 0 .002.002 0 .005l.064-.086.14-.158c.035-.048.071-.096.108-.143.044-.056.083-.115.13-.17.394-.465.002.025.206-.226.136-.164.274-.327.414-.486l.307-.348c.05-.067.078-.155.135-.217 3.575-3.912 7.51-7.497 11.24-11.27 17.856-18.07 35.652-36.195 53.55-54.222 6.302-6.346 12.83-12.465 19.257-18.688-.785-.41-1.57-.82-2.702-1.261-2.756-.049-5.173.047-7.57-.13-1.372-.1-2.712-.645-4.066-.99.444-1.285.651-2.738 1.4-3.81.804-1.15 2.12-1.944 3.553-2.946 1.304-2.19 2.266-4.329 3.197-6.834z"/><path d="M1077.587 272.585c-.8 1.995-2.053 3.646-2.07 5.311-.158 15.158.027 30.319-.14 45.476-.167 15.091-.673 30.177-.91 45.267-.045 2.797.292 5.636.784 8.397.844 4.74-.597 8.656-4.836 12.102 0-32.147.067-64.293-.043-96.44-.032-9.06-.792-18.118-.832-27.18-.03-6.795.625-13.59.85-20.39.155-4.737-1.639-8.02-5.783-11.112-4.608-3.44-7.788-8.754-11.762-13.093-4.569-4.989-8.577-11.056-14.174-14.41-9.057-5.425-14.597-13.596-20.756-21.45-1.31-1.672-2.273-3.616-3.412-5.79 3.632 2.596 7.495 5.318 10.883 8.54 8.075 7.678 15.953 15.565 23.858 23.42a4184.447 4184.447 0 0 1 26.48 26.55c.763.772 1.553 1.95 1.574 2.957.225 10.5.295 21.004.288 31.843zm-104.05-134.112c-.679-.42-1.4-1.184-2.098-2.27.702.428 1.378 1.177 2.098 2.27zm34.09 32.119a15.08 15.08 0 0 1-3.154-2.714c.988.544 1.965 1.495 3.154 2.714zm-72.93 362.173c.24-.797.745-1.751 1.613-2.745-.208.836-.777 1.711-1.613 2.745zm79.79-354.237c-.683-.103-1.308-.543-1.968-1.295.652.111 1.34.535 1.968 1.295zm-20.16-20.96c-.57-.253-1.215-.81-1.853-1.737.597.23 1.188.832 1.853 1.737zm-2.65-2.959c-.583-.225-1.376-.71-2.184-1.586.648.181 1.311.753 2.184 1.586zm5 5.016c-.576-.16-1.358-.564-2.167-1.323.635.123 1.298.6 2.167 1.323zm2.99 2.975c-.58-.265-1.375-.797-2.177-1.735.65.218 1.307.843 2.177 1.735zm11.66 11.98c-.556-.25-1.2-.798-1.84-1.713.587.228 1.17.822 1.84 1.713zm-73.6 354.435c.24-.535.74-1.25 1.6-1.998-.205.583-.773 1.2-1.6 1.998zm9.82-416.381c-.535-.191-1.263-.623-2.04-1.395.584.158 1.215.656 2.04 1.395zm3.96 3.998c-.53-.26-1.255-.772-2.005-1.655.587.22 1.198.811 2.005 1.655zm4.81 4.982c-.54-.16-1.19-.59-1.839-1.345.578.143 1.154.609 1.84 1.345zm2.17 2.017c-.55-.17-1.263-.6-1.997-1.37.598.143 1.215.627 1.997 1.37zm3.85 2.944c-.57-.206-1.212-.709-1.856-1.562.593.188 1.188.727 1.856 1.562zm6.2 6.048c-.538-.26-1.279-.773-2.037-1.665.6.218 1.217.815 2.037 1.665zm2.79 3.001c-.517-.254-1.164-.781-1.83-1.661.555.227 1.127.807 1.83 1.661zm-7.79-7.06c-.442-.142-.78-.582-1.089-1.315.417.143.805.58 1.09 1.315zm1.97 1.075c-.389.09-1.01-.052-1.825-.455.403-.1.997.061 1.825.455zm-19.84 391.366c.03-.297.26-.763.68-1.107-.035.394-.256.666-.68 1.107zm66.85-344.429c-.406-.148-.737-.597-1.053-1.338.385.15.757.594 1.053 1.338zm-59.18-57.951c-.183.014-.45-.233-.793-.753.186-.018.447.237.793.753zm1.01 1.007c-.282.196-.54.031-.8-.478.282-.225.558-.072.8.478z" fill="#2b2b2a"/><path fill="#d3d0d2" d="M521.367 597.825c1.03-1.694 2.06-3.388 3.086-5.428.424-.376.854-.406 1.843-.254 5.234-.246 8.671-2.891 12.427-5.513 8.67-6.052 9.05-6.144 6.683-15.54.164-.057.328-.113.735-.266 2.125-1.445 4.008-2.795 6.566-4.21 2.922-.97 5.705-1.313 7.333-2.866 13.074-12.472 26.111-24.995 38.763-37.891 5.045-5.143 9.092-11.265 13.725-17.14.337-.449.582-.649 1.215-.843 3.497-2.652 8.44-3.601 8.638-8.964.022.002-.009-.03.336-.062 3.76-3.683 7.172-7.334 10.608-10.982.022.002.018-.042.372-.06 1.792-1.982 3.23-3.946 4.681-6.147.015-.239.05-.715.42-.715 1.111-.012 1.852-.023 2.733.267a637.66 637.66 0 0 0 1.972 3.97c6.582-5.648 12.753-10.942 18.913-15.872-.464 1.406-.707 2.623-1.406 3.459-4.107 4.905-8.09 9.946-12.545 14.52-9.555 9.811-19.567 19.18-29.007 29.097-5.3 5.568-9.828 11.87-14.722 17.828-.717.872-1.426 1.812-2.325 2.464-4.843 3.516-10.055 6.594-14.536 10.513-4.35 3.804-7.81 8.604-11.943 12.681-11.432 11.28-22.928 22.5-34.58 33.553-3.96 3.758-8.484 6.916-12.7 10.408-3.475 2.876-6.279 2.1-8.729-1.217l1.446-4.79z"/><path fill="#dfdede" d="M545.057 571.125c2.717 9.362 2.337 9.453-6.332 15.505-3.755 2.622-7.192 5.267-12.108 5.46 5.602-6.553 11.453-12.863 17.268-19.205.412-.449.554-1.144 1.172-1.76z"/><path d="M319.047 624.005c-.454.907-1.21 1.88-2.313 2.87.44-.925 1.224-1.864 2.313-2.87zm303.03-335.25a14.67 14.67 0 0 1-2.567 3.108c.508-.96 1.405-1.933 2.567-3.108zm36.05-36.62c-.238.787-.738 1.73-1.597 2.716.206-.826.77-1.692 1.597-2.716zm-324.01 356.72c-.252.533-.76 1.252-1.638 1.998.215-.585.798-1.199 1.638-1.998zm-4.04 3.84c-.23.575-.724 1.352-1.608 2.155.19-.634.767-1.294 1.608-2.155z" fill="#2b2b2a"/><path fill="#a07177" d="M185.194 756.735a7.65 7.65 0 0 1-1.794 2.225c.243-.669.906-1.315 1.794-2.225z"/><path d="M136.105 805.725c-.183.553-.607 1.31-1.38 2.123.147-.603.643-1.26 1.38-2.123zm4.966-4.72c-.25.558-.797 1.208-1.71 1.856.226-.588.82-1.177 1.71-1.856zm2.024-2.26c-.168.56-.586 1.305-1.349 2.097.136-.605.618-1.258 1.35-2.097zm4-3.96c-.25.548-.758 1.293-1.645 2.061.21-.606.798-1.235 1.645-2.061zm3.977-4.09c-.23.584-.73 1.364-1.624 2.16.19-.645.772-1.305 1.624-2.16zm3.006-2.69c-.25.55-.795 1.2-1.704 1.853.227-.581.82-1.168 1.704-1.853z" fill="#2b2b2a"/><path fill="#a07177" d="M177.181 764.995c-.157.46-.553 1.043-1.242 1.717.14-.47.57-1.033 1.242-1.717zm5.011-5.24a7.616 7.616 0 0 1-1.792 2.203c.244-.66.904-1.302 1.792-2.203z"/><path fill="#2b2b2a" d="M321.097 621.785c-.164.557-.58 1.292-1.337 2.062.134-.605.61-1.244 1.337-2.062z"/><path fill="#a07177" d="M191.053 751.225c-.274.543-.838 1.179-1.752 1.766.253-.59.858-1.132 1.752-1.766z"/><path d="M313.127 630.015c-.175.511-.61 1.147-1.352 1.837.16-.534.625-1.123 1.352-1.837zm327.96-360.25c-.23.558-.722 1.307-1.59 2.087.191-.611.76-1.253 1.59-2.087zm-29.99 30.03c-.239.545-.733 1.283-1.6 2.054.201-.599.773-1.23 1.6-2.054zm33.01-32.98c-.249.533-.746 1.267-1.612 2.036.208-.588.786-1.211 1.612-2.036zm3.97-3.8c-.236.551-.764 1.195-1.648 1.845.214-.58.785-1.167 1.648-1.845zm4.03-3.99c-.235.523-.744 1.168-1.599 1.84.211-.553.768-1.135 1.6-1.84zm-46.02 45.72c-.239.561-.737 1.32-1.619 2.102.198-.62.78-1.262 1.62-2.102zm-5.99 6.02c-.17.558-.595 1.295-1.364 2.08.14-.602.626-1.25 1.364-2.08zm26-26.02c-.248.548-.746 1.308-1.624 2.096.204-.609.79-1.247 1.624-2.096zm2.97-3.07c-.237.591-.748 1.376-1.66 2.172.194-.652.79-1.315 1.66-2.172zm-30.96 31.33c-.177.53-.623 1.166-1.387 1.84.161-.552.64-1.142 1.387-1.84zm-9.02 8.74c-.165.566-.587 1.327-1.357 2.155.134-.61.618-1.285 1.357-2.155zm3.98-3.75c-.222.566-.74 1.212-1.615 1.868.202-.59.76-1.189 1.615-1.868zm-276.97 309.06c.114.408-.048.956-.455 1.666-.104-.401.038-.964.455-1.666zm279.98-312.01c.138.427-.015.976-.42 1.675-.127-.417.001-.986.42-1.675zm-1.02 1.8c-.158.389-.612.707-1.356 1.032.16-.363.61-.733 1.356-1.032zm-279.99 312.03c-.166.364-.632.684-1.394 1.017.167-.344.63-.702 1.394-1.017zm300.97-333.01c-.208.374-.735.695-1.592 1.013.204-.357.738-.712 1.592-1.013zm1.05-2.06c.116.411-.022 1.044-.426 1.872-.12-.42.026-1.035.426-1.872zm-279.98 313.08c-.214.287-.74.633-1.598.991.208-.302.747-.617 1.598-.991zm-180.984 180c-.175.295-.648.635-1.423.992.174-.305.65-.626 1.423-.992zm478.944-511.16c.148.43.026 1.085-.378 1.93-.152-.443-.022-1.074.378-1.93zm-1.06 2.11c-.212.418-.745.743-1.615 1.049.207-.394.751-.768 1.615-1.049z" fill="#2b2b2a"/><path fill="#a07177" d="M178.241 763.735c.043.176-.098.597-.56 1.125-.088-.222.144-.552.56-1.125z"/><path fill="#2b2b2a" d="M134.176 808.005c.114.206-.068.464-.532.789-.136-.213.037-.481.532-.789z"/><path fill="#a07177" d="M175.168 767.255c.038-.085-.353.004-.37.115-.015.112.332-.03.37-.115z"/><path d="M654.187 256.865c.028.143-.156.452-.57.905-.035-.151.161-.445.57-.905zm-1.02 1.14c.115.217-.076.478-.565.796-.132-.223.053-.492.565-.796zm-4 3.79c.05.158-.114.485-.515.954-.058-.167.121-.476.515-.954z" fill="#2b2b2a"/><path fill="#c6c1c3" d="M686.397 447.085c4.628-2.96 9.546-4.523 15.183-4.243 6.626.328 13.281.086 20.446.509 1.452 1.3 2.275 2.783 3.327 2.969 9.198 1.63 14.182 9.33 20.083 14.985 6.006 5.756 11.21 13.035 12.447 22.109.222 1.628 2.21 3.015 3.381 4.513.33 3.56.658 7.12.265 10.948-1.14.74-1.892 1.188-1.929 1.688-.713 9.874-4.437 18.872-7.716 28.044-.806 2.255.26 5.18.49 8.089 2.107-.838 3.156-1.255 4.174-1.433-.03.239.14.689.14.689-.048.443-.097.886-.197 1.66-1.43.371-2.81.411-4.604.487-1.197-.375-1.982-.785-3.173-1.557-2.366-2.773-4.325-5.185-6.284-7.597.965-2.14 1.93-4.281 3.147-6.957 1.07-2.067 1.886-3.598 3.067-5.173 6.007-4.917 8.08-16.322 4.61-24.168-.102-.561-.105-.892-.013-1.677-.62-7.529-1.019-14.711-6.615-20.177-.063-.018-.042-.146-.063-.534-.117-3.312-.755-5.722-4.693-5.211-.155-.072-.34-.357-.413-.687-2.173-2.985-3.84-6.243-6.484-8.144-3.418-2.46-7.51-4.133-11.516-5.573-2.464-.885-5.312-.702-8.358-.994-1.096-.128-1.822-.26-2.696-.63-1.728-.083-3.308.073-5.269.346-1.176.16-1.97.202-3.065.063-5.847.238-11.262.97-14.9 6.13-.077.097-.32.14-.596.179-.95.596-1.624 1.154-2.463 1.878-.166.168-.599.354-.9.371-.826.545-1.35 1.073-2.03 1.754-.154.153-.56.306-.814.383-.462.354-.67.63-.886.86-.007-.049.03.044-.332.048-4.655 2.228-8.653 4.73-9.837 10.287a13.13 13.13 0 0 1-1.656 1.627c-.07.037-.258.288-.547.621-.738.712-1.187 1.091-1.614 1.47.023.002.004-.026-.21.242-.39.416-.564.564-.98.83-.425.418-.608.719-.94 1.293-.615.68-1.08 1.088-1.65 1.545-.103.05-.392.405-.484.56-.093.156-.402.341-.505.408-.102.066-.36.47-.48.679-.12.208-.5.504-.764.597-.452.403-.64.712-.839.962-.01-.06.08.023-.188.085-.566.497-.865.93-1.27 1.518-.108.154-.44.325-.704.421-.442.41-.62.726-.81.953-.008-.088.066.072-.265.136-1.622 1.675-2.913 3.285-4.36 5.123-.307.333-.459.437-.957.585-3.462 2.41-6.78 4.557-9.639 7.202-3.236 2.996-5.537 7.286-9.164 9.518-8.75 5.386-14.066 13.788-20.408 21.3-1.19 1.41-1.542 3.524-2.39 5.581-.956 1.043-1.803 1.817-3.03 2.566-1.96.804-3.82 1.333-5.072 2.51-8.606 8.087-17.286 16.116-25.477 24.614-2.325 2.412-3.102 6.316-4.566 9.576.023.04-.066.01-.389.062-1.748 1.039-3.173 2.026-4.947 3.029-1.432.975-2.515 1.934-3.962 2.925-1.51.62-2.873.98-3.763 1.833-3.734 3.58-7.454 7.191-10.943 11.008-6.086 6.66-11.998 13.481-18.275 20.298-.745.654-1.197 1.245-1.887 2.044-1.079.777-1.919 1.345-3.1 1.96-7.436 7.048-14.54 14.042-21.564 21.114-.144.144.64 1.21.842 2.145-.44 1.362-.73 2.423-1.173 3.783-2.755 2.811-5.356 5.323-8.235 7.886-.61.47-.944.89-1.306 1.291-.03-.017.042.034-.318-.005-1.432.63-2.645 1.15-3.554 1.996-3.782 3.522-7.473 7.142-11.429 10.513.815-3.456 2.094-6.648 2.853-9.958 1.056-4.605-.676-6.091-5.24-5.239-2.133.398-4.364.266-6.549.375 2.642-3.104 5.117-6.37 7.954-9.285 14.09-14.478 28.272-28.866 42.436-43.271.206-.21.59-.246 1.232-.442-.12 1.46-.585 3-1.102 4.712 2.45 3.317 5.254 4.093 8.727 1.217 4.218-3.491 8.742-6.65 12.702-10.408 11.651-11.054 23.147-22.273 34.58-33.553 4.132-4.077 7.592-8.877 11.942-12.68 4.482-3.92 9.694-6.998 14.536-10.514.9-.652 1.608-1.592 2.325-2.464 4.894-5.957 9.421-12.26 14.722-17.828 9.44-9.916 19.452-19.286 29.007-29.096 4.456-4.575 8.438-9.616 12.545-14.521.7-.836.943-2.054 1.402-3.462.006-.367.013-.36.382-.37 2.45-1.678 4.53-3.343 6.775-5.299 3.474-3.144 6.911-5.867 10.056-8.894 2.447-2.356 4.528-5.092 6.772-7.659z"/><path fill="#c5bbbf" d="M612.397 508.915c-4.5 5.676-8.547 11.799-13.593 16.941-12.652 12.896-25.689 25.419-38.763 37.891-1.628 1.553-4.41 1.896-7.055 2.702 9.42-10.404 19.236-20.71 29.65-31.263 5.334-4.278 10.146-8.223 14.78-12.367 5.08-4.54 9.994-9.262 14.98-13.905z"/><path fill="#dfdede" d="M686.037 447.015c-1.883 2.631-3.964 5.367-6.41 7.723-3.145 3.027-6.583 5.75-10.4 8.945-2.606 1.98-4.703 3.62-6.8 5.259 0 0-.008-.008-.003-.005a34607.244 34607.244 0 0 1-18.92 16.238c-.86-1.725-1.346-2.696-1.97-4.285a15.926 15.926 0 0 1-.195-2.161c-.437-.788-.865-1.304-1.292-1.82.22-.956.442-1.91.988-2.857 4.962 2.545 8.585-.415 11.476-2.97 6.203-5.481 12.365-10.786 19.79-14.688 4.79-2.516 8.938-6.253 13.736-9.379z"/><path fill="#b3a1a4" d="M612.527 508.715c-5.118 4.841-10.033 9.564-15.112 14.104-4.635 4.143-9.447 8.088-14.537 12.137a1711.751 1711.751 0 0 1 29.08-30.33c8.487-8.639 17.115-17.139 26.04-25.458.381.753.404 1.264.428 1.775 0 0-.034.476-.348.861a2236.07 2236.07 0 0 0-4.736 6.019s.004.044-.36.101c-3.78 3.69-7.195 7.323-10.61 10.955 0 0 .03.031-.3.173-3.11 3.05-5.894 5.957-8.677 8.865-.286.15-.53.35-.868.798z"/><path fill="#c5bbbf" d="M638.797 480.945c-.394-.51-.417-1.02-.49-1.913.027-.732.23-.983.993-.933.973.436 1.51.672 2.046.908.016.424.032.847.045 1.587-.742.328-1.483.34-2.594.351z"/><path fill="#d3d0d2" d="M641.337 478.735c-.527.035-1.063-.2-1.79-.669-.108-.41-.027-.588.276-.959.65.324 1.077.84 1.514 1.628z"/><path d="M819.317 230.015c-.204.587-.772 1.21-1.59 2.033.242-.534.734-1.265 1.59-2.033zm-46.19 46c-.168.568-.673 1.198-1.42 2.021.2-.524.642-1.242 1.42-2.021zm36.14-36c-.197.576-.75 1.2-1.548 2.02.234-.526.713-1.25 1.548-2.02zm-128.13 128.01c-.17.564-.677 1.185-1.425 1.996.202-.52.647-1.23 1.425-1.996zm2.2-2.02c-.218.556-.782 1.138-1.62 1.848.241-.522.758-1.172 1.62-1.848zm7.73-7.99c-.15.57-.63 1.205-1.35 2.034.18-.527.6-1.248 1.35-2.034zm114.08-114c-.185.541-.69 1.13-1.459 1.847.204-.514.672-1.157 1.46-1.847zm17.21-17.11c-.04.391-.262.657-.692 1.08.03-.296.27-.751.692-1.08zm-51.92 52.18c.015.167-.255.455-.759.925.002-.147.238-.476.76-.925zm-6 6c.016.17-.255.46-.76.936.001-.148.236-.481.76-.936zm-6.03 5.99c.01.158-.25.431-.746.86 0-.146.24-.445.746-.86zm48.04-48.01c.005.165-.258.423-.772.798 0-.158.252-.43.772-.798zm-32.21 32c.014.134-.184.399-.6.79-.08-.186.12-.447.6-.79zm-95.82 96c.005.159-.256.423-.76.82.001-.149.248-.432.76-.82zm8.03-7.97c.016.17-.256.46-.764.938.002-.148.24-.483.764-.938z" fill="#2b2b2a"/><path fill="#d3d0d2" d="M433.267 713.895c1.38-6.048 2.76-12.097 4.565-18.607 4.27-3.47 8.21-6.362 11.935-9.51 6.065-5.128 12.1-10.305 17.922-15.7 2.56-2.374 1.953-6.68-.708-6.789-1.878-.076-4.115 1.105-5.682 2.36-5.047 4.044-9.75 8.52-14.849 12.49-1.04.81-3.23.146-4.89.16 6.4-6.399 12.798-12.798 19.741-19.084 5.838.375 6.273-3.649 7.104-7.324.16-.297.321-.594.742-.944 2.446-.161 4.676-.03 6.808-.427 4.565-.853 6.297.634 5.241 5.239-.759 3.31-2.038 6.501-3.028 10.232-.886 1.634-1.828 2.782-3.113 3.99-4.707 3.43-9.214 6.634-13.406 10.208-6.16 5.254-12.144 10.72-18.083 16.226-1.003.93-1.48 2.472-2.075 3.788-1.98 4.384-3.852 8.817-5.926 13.155-.212.444-1.506.37-2.298.536z"/><path fill="#dfdede" d="M441.237 678.245c1.983.043 4.172.709 5.213-.101 5.1-3.97 9.802-8.447 14.85-12.49 1.566-1.256 3.803-2.437 5.68-2.36 2.662.107 3.27 4.414.71 6.787-5.825 5.397-11.858 10.573-17.923 15.7-3.725 3.149-7.665 6.041-11.86 9.097.446-3.32 1.493-6.655 1.934-10.068.21-1.612-.742-3.374-1.267-5.423.713-.636 1.526-.918 2.663-1.142z"/><path fill="#c6c1c3" d="M468.067 651.995c-.498 3.571-.933 7.595-6.45 7.106 1.89-2.486 4.004-4.744 6.45-7.106z"/><path fill="#a07177" d="M523.287 753.795c-4.43 8.63-13.753 10.715-20.559 16.103-7.633 6.043-16.186 2.61-24.826 1.575.895-1.157 2.133-2.304 3.463-2.423 3.204-.287 6.45-.093 9.68-.093l-.003-.538c-3.174-.368-6.347-.735-9.28-1.4 11.28-1.718 21.02-5.795 28.737-14.1 5.976-6.433 11.902-12.918 18.05-19.186 11.423-11.65 23.017-23.132 34.496-34.726 27.3-27.574 54.52-55.23 81.88-82.747 30.396-30.572 60.887-61.05 91.404-91.502 3.49-3.483 7.411-6.534 11.25-9.555.31.705.505 1.18.7 1.654-.817 1.532-1.634 3.064-2.735 4.76-2.895 2.374-5.695 4.395-8.08 6.823-8.493 8.643-16.71 17.559-25.283 26.12-10.204 10.19-20.788 20-30.985 30.196-11.112 11.11-21.95 22.493-32.946 33.72-6.265 6.396-12.652 12.672-18.905 19.08-25.893 26.53-51.9 52.953-77.556 79.713-9.74 10.159-18.692 21.078-27.85 31.78-.84.983-.56 2.924-.653 4.747z"/><path d="M742.087 528.995c2.3 2.359 4.26 4.77 6.278 7.513-2.35.313-4.768.41-7.165.233-1.372-.101-2.71-.645-4.065-.99.445-1.285.65-2.738 1.4-3.81.803-1.15 2.12-1.944 3.552-2.946zm-119.37-30.15c3.07-3.6 6.487-7.232 10.244-10.924a170.97 170.97 0 0 1-10.244 10.924Zm-8.97 9.03c2.436-2.864 5.22-5.772 8.31-8.823.13 5.221-4.812 6.17-8.31 8.823zm19.95-20.07c1.12-1.86 2.594-3.738 4.367-5.762a41.36 41.36 0 0 1-4.367 5.762z" fill="#c5bbbf"/><path fill="#d3d0d2" d="M761.337 487.515c-1.243-1.094-3.23-2.481-3.452-4.11-1.237-9.073-6.44-16.352-12.447-22.108-5.902-5.656-10.884-13.355-20.083-14.985-1.052-.187-1.875-1.67-2.863-2.89 12.566.763 31.678 14.505 34.06 28.802.85 5.09 3.194 9.932 4.785 15.29z"/><path fill="#dfdede" d="m756.577 535.025-4.205 1.672c-.229-2.91-1.296-5.834-.49-8.088 3.28-9.172 7.003-18.171 7.717-28.044.036-.5.787-.95 1.58-1.504.3 3.966.795 8.127.013 12.033-1.085 5.43-3.047 10.695-4.792 15.978-.988 2.987-2.864 5.985 1.108 7.844-.493.068-.93.11-.93.11z"/><path fill="#1d1d1d" d="M756.547 535.255c.03-.239.47-.28.678-.212.132.322-.003.54-.367.81-.17.091-.342-.36-.31-.598z"/><path fill="#cc2129" d="M747.467 514.965c-3.72 3.251-7.643 6.302-11.133 9.785-30.517 30.452-61.009 60.93-91.405 91.502-27.359 27.517-54.578 55.172-81.879 82.747-11.48 11.595-23.073 23.078-34.497 34.726-6.147 6.268-12.072 12.753-18.049 19.186-7.717 8.306-17.456 12.382-29.118 14.02-1.14.214-1.657.208-2.379-.087-2.074-.456-3.942-.623-6.234-.943-1.007-.287-1.59-.42-2.227-.862-3.507-1.697-6.962-3.087-10.687-4.681-1.528-1.171-2.785-2.137-4.093-3.363-.52-.45-.989-.64-1.643-1.012-.43-.43-.675-.675-.98-1.153-.246-.53-.513-.684-1.08-.912-1.098-1.079-1.977-1.94-2.883-3.117-.63-.83-1.23-1.345-1.947-2.035-.115-.174-.35-.518-.334-.756-.093-.583-.328-.768-.843-1.063-.255-.449-.357-.629-.332-1.04-.18-.49-.489-.747-.917-1.212-.12-.206-.338-.634-.228-.78.11-.147-.07-.464-.07-.464s-.366.011-.42-.079c-.057-.09-.174-.268-.086-.605-.607-1.353-1.303-2.37-2.11-3.784-.27-.928-.429-1.457-.416-2.18-.075-.512-.322-.83-.613-1.307a1.14 1.14 0 0 1 .07-.787c-.145-1.069-.443-1.836-.818-3.036-.34-2.409-.676-4.38-.857-6.365-.669-7.305-.012-14.058 5.52-19.863 9.161-9.611 17.9-19.625 26.81-29.395-.005.075-.055-.072.214-.288.412-.397.555-.578.712-.678.014.08-.026-.07.256-.304.438-.42.595-.607.757-.717.004.076-.032-.057.245-.286.431-.41.586-.593.732-.705-.01.07-.02.013.246-.267.397-.5.53-.722.967-1.067 6.195-6.246 12.083-12.369 17.97-18.492 0 0-.072-.05.227-.096.64-.456.977-.868 1.316-1.28 2.6-2.512 5.201-5.024 8.278-7.892a20395.907 20395.907 0 0 0 58.93-59.76c3.34-3.4 6.565-6.913 9.843-10.374 0 0 .088.03.38-.121 8.652-8.424 17.11-16.604 25.334-25.011 3.53-3.609 6.58-7.688 9.847-11.554.846-.774 1.693-1.549 2.968-2.719 9.775-10.057 19.15-19.69 28.456-29.39 4.457-4.645 8.786-9.414 13.172-14.127.151-.105.303-.21.913-.584 1.77-1.895 3.08-3.52 4.388-5.145 0 0-.075-.16.19-.177.448-.325.633-.635.817-.944 0 0 .333-.171.701-.4.672-.654.975-1.08 1.278-1.505 0 0-.09-.084.18-.12.462-.343.652-.65.842-.958 0 0 .38-.296.656-.5.494-.34.544-.521.428-.75 0 0 .31-.185.553-.314.478-.233.542-.403.437-.637.465-.407.931-.815 1.8-1.599.578-.687.753-.997.927-1.307.175-.148.35-.296.75-.631.227-.188.177-.323.177-.323.45-.379.898-.758 1.761-1.41.414-.273.607-.467.607-.467l-.114-.25c.482-.432.964-.864 1.897-1.706 3.597-3.666 6.741-6.921 9.886-10.176 0 0-.036-.093.232-.109.472-.302.675-.587.88-.872l.851-.321c.977-.698 1.508-1.227 2.04-1.756 0 0 .432-.186.876-.371 1.117-.757 1.79-1.329 2.462-1.9 0 0 .243-.043.664-.158 5.232-2.053 10.043-3.992 14.854-5.93.795-.043 1.59-.085 3.162-.075 2.192-.058 3.607-.168 5.022-.278.726.132 1.451.264 2.814.638 5.52 2.266 10.635 3.877 15.215 6.443 3.965 2.221 7.323 5.526 10.95 8.352 0 0 .185.285.45.681a262.075 262.075 0 0 0 4.604 5.275s-.02.128.074.506c1.453 4.216 2.884 8.03 4.146 11.9.898 2.752 1.57 5.578 2.341 8.372.004.33.007.661-.04 1.585-1.062 7.94-.693 15.647-5.643 21.963z"/><path d="M571.957 573.905a226.855 226.855 0 0 1-9.519 10.322c-19.47 19.817-38.967 39.607-58.777 59.462-.032-1.005.258-2.066.98-3.59 3.845-3.826 7.44-7.025 10.624-10.592 3.58-4.01 6.787-8.353 10.156-12.55.84-.57 1.68-1.138 3.064-1.95.987-.853 1.431-1.463 1.875-2.072 5.985-6.754 11.896-13.574 17.983-20.235 3.488-3.817 7.21-7.428 10.943-11.008.89-.853 2.253-1.214 4.088-1.848 1.79-1.006 2.887-1.966 3.986-2.926 1.425-.987 2.85-1.974 4.598-3.013zm35.5-36.77c-2.887 3.89-5.936 7.97-9.466 11.578-8.225 8.407-16.682 16.587-25.358 24.97 1.174-3.108 1.951-7.012 4.276-9.424 8.19-8.498 16.87-16.527 25.477-24.615 1.252-1.176 3.112-1.705 5.071-2.51zm44.63-46.16a372.073 372.073 0 0 1-12.826 14.084 2814.593 2814.593 0 0 1-28.347 29.121c.42-1.661.773-3.776 1.962-5.185 6.341-7.512 11.656-15.915 20.408-21.3 3.627-2.232 5.928-6.522 9.164-9.518 2.858-2.645 6.177-4.792 9.64-7.202z" fill="#b3a1a4"/><path fill="#c5bbbf" d="M525.077 616.995c-3.028 4.152-6.236 8.495-9.815 12.505-3.183 3.567-6.779 6.766-10.475 10.291-.634-.472-1.417-1.537-1.274-1.681 7.024-7.073 14.128-14.066 21.564-21.114z"/><path d="M747.577 515.195c4.834-6.546 4.464-14.254 5.623-21.963 3.523 7.252 1.45 18.658-4.558 23.575-.559-.432-.754-.907-1.065-1.612zm-6.12-50.84c-3.554-2.496-6.912-5.8-10.877-8.022-4.58-2.565-9.695-4.176-14.845-6.447 2.41.05 5.258-.133 7.722.753 4.007 1.44 8.098 3.112 11.516 5.572 2.643 1.902 4.31 5.159 6.483 8.144zm-248.13 188.86a329.301 329.301 0 0 1-17.619 18.208c-.313-.63-.312-1.062-.31-1.494a214.527 214.527 0 0 0 3.003-3.719c3.9-3.857 7.59-7.477 11.372-10.999.908-.846 2.122-1.365 3.554-1.995zm259.91-162.25c-.868-2.339-1.538-5.165-2.436-7.917-1.262-3.87-2.693-7.684-4.085-11.882 5.503 5.088 5.9 12.27 6.521 19.799zm-72.09-29.94c-2.784 3.25-5.929 6.505-9.386 9.876.732-5.147 4.73-7.649 9.386-9.876zm22.92-11.6c-4.512 2.12-9.323 4.06-14.479 6.015 3.217-5.045 8.632-5.777 14.48-6.015z" fill="#b3a1a4"/><path fill="#d3d0d2" d="M662.797 468.935c1.73-1.627 3.826-3.267 6.268-4.957-1.737 1.614-3.819 3.28-6.268 4.957z"/><path fill="#b3a1a4" d="M746.567 470.255c-1.425-1.238-2.872-2.865-4.428-4.816 3.674-.906 4.311 1.504 4.428 4.816zm-89.16 15.01c-.978 1.56-2.288 3.186-3.9 4.853.987-1.568 2.278-3.178 3.9-4.853z"/><path fill="#c5bbbf" d="M567.007 576.925c-.75.944-1.848 1.904-3.272 2.878.758-.944 1.84-1.903 3.272-2.878z"/><path fill="#b3a1a4" d="M712.407 449.015c-1.267.349-2.682.459-4.493.4 1.185-.327 2.765-.483 4.493-.4z"/><path fill="#c5bbbf" d="M530.067 612.995c-.152.546-.596 1.155-1.345 1.8.148-.555.6-1.146 1.345-1.8z"/><path d="M688.577 455.735c-.396.532-1.069 1.104-2.02 1.693.396-.54 1.07-1.097 2.02-1.693zm-3.37 2.25c-.23.512-.76 1.041-1.585 1.585.233-.512.76-1.04 1.585-1.585zm-190.26 193.94c-.06.36-.398.772-1.006 1.246.063-.357.395-.776 1.006-1.246zm165.51-169.69c-.035.363-.338.788-.902 1.29.038-.36.336-.794.902-1.29zm21.91-22.11c.05.208-.153.493-.617.843-.053-.213.155-.49.617-.843zm-23.89 24.05c.078.213-.107.523-.546.936-.075-.21.104-.525.546-.936zm3-2.99c.073.214-.118.522-.568.925-.072-.213.117-.522.568-.925zm1.25-1.27c.22.162.168.344-.205.475-.156-.005.103-.409.205-.475zm.99-.97c.21.184.144.354-.24.432-.152-.027.137-.381.24-.432zm2.59-2.84c.067.192-.107.503-.536.916-.07-.197.111-.497.536-.916zm1.19-1.07c-.023 0 .027.135.016.054-.012-.081.007-.053-.016-.054zm2.16-2.09c.07-.036.185.213.185.213s-.193.194-.318.134.062-.31.133-.347z" fill="#b3a1a4"/><path fill="#c5bbbf" d="M475.047 669.985c.34.371.34.803.345 1.558-.123.544-.255.765-.623 1.267-.236.28-.266.195-.266.195-.155.182-.31.365-.715.78-.25.233-.275.205-.275.205-.158.187-.315.373-.728.8-.257.24-.295.218-.295.218a9.19 9.19 0 0 1-.677.767c-.248.227-.228.204-.228.204-8.917 9.845-17.655 19.858-26.816 29.47-5.533 5.806-6.19 12.558-5.52 19.863.18 1.985.516 3.956.822 6.67.26 1.502.48 2.267.7 3.033l.078.663a9 9 0 0 0 .446 1.323c.158.529.317 1.058.588 2.297.75 1.744 1.385 2.777 2.021 3.81 0 0 .117.177.183.387.066.21.371.57.371.57s.217.428.37.809c.354.677.557.972.76 1.268.1.18.202.36.5 1.02.314.758.51.961.784 1.09 0 0 .236.344.417.825.462 1.046.743 1.61 1.035 2.53.084 1.298.156 2.242.18 3.235-.05.05-.148.15-.532.122a69.36 69.36 0 0 0-2.696.046s.077-.023.103-.362c-.03-.83.076-1.426-.167-1.793-5.807-8.788-9.733-18.26-10.954-28.813-.09-.788-1.755-1.394-2.688-2.085.348-2.581.697-5.163 1.367-7.901 1.113-.324 2.407-.25 2.62-.694 2.073-4.338 3.945-8.772 5.925-13.155.595-1.317 1.072-2.86 2.075-3.789 5.94-5.505 11.922-10.973 18.083-16.226 4.192-3.574 8.7-6.778 13.406-10.207z"/><path fill="#b3a1a4" d="M448.557 754.795c-.072-.944-.145-1.888-.009-3.231.208-.4.654-.441.654-.441a95.038 95.038 0 0 1 2.96 2.998c.51.662.746.839 1.035.946.245.246.49.493 1.054 1.123.733.612 1.146.842 1.56 1.071 1.257.966 2.514 1.932 4.202 3.382 3.814 1.893 7.196 3.301 10.58 4.71.584.133 1.168.266 2.385.8 2.498.596 4.364.79 6.23.986.516.006 1.033.012 1.932.097 3.555.446 6.728.814 9.901 1.181l.002.538c-3.228 0-6.475-.194-9.678.093-1.33.12-2.568 1.267-3.887 2.336-3.154 1.17-6.252-2.848-9.684.147-1.214-1.639-1.839-3.402-3.075-4.43-3.876-3.227-7.967-6.198-12.016-9.212-.635-.473-1.488-.654-2.26-.964-.02.006-.008-.035-.068-.333-.645-.798-1.23-1.298-1.817-1.797z"/><path fill="#dfdede" d="M431.517 722.375c.99.271 2.654.877 2.745 1.665 1.22 10.553 5.146 20.025 10.954 28.813.242.367.137.964.158 1.832-10.136-5.893-12.105-16.029-12.97-26.72-.14-1.738-.62-3.448-.887-5.59z"/><path fill="#c5bbbf" d="M448.507 754.845c.635.45 1.221.95 1.768 1.81-.039.36-.059.631-.059.631l.246-.367c.752.316 1.604.498 2.24.97 4.05 3.015 8.14 5.986 12.015 9.212 1.237 1.029 1.862 2.792 2.78 4.612-6.99-3.074-14.179-6.28-18.975-13.696a52.637 52.637 0 0 1-.162-3.024z"/><path fill="#dfdede" d="M447.977 754.965c.407.801.43 1.575.427 2.736-1.012-.412-1.996-1.211-3.052-2.35.7-.365 1.47-.389 2.625-.386z"/><path d="M470.537 765.045c-3.33-1.1-6.713-2.508-10.256-4.197a88.27 88.27 0 0 1 10.256 4.197zm8.46 1.8c-1.66.095-3.526-.1-5.6-.542 1.657-.08 3.526.086 5.6.542zm-35-24.07c-.725-.696-1.36-1.73-1.998-3.074.695.705 1.39 1.72 1.998 3.074zm5.18 8.03c.028.315-.417.357-.637.401-.5-.519-.78-1.083-1.128-1.955.534.208 1.136.724 1.765 1.554zm-8.25-16.09c-.373-.464-.593-1.23-.777-2.3.333.463.632 1.23.777 2.3zm.54 2.09c-.307-.135-.442-.464-.573-.97.251.14.498.458.573.97zm14.29 20.19c-.363.031-.777-.198-1.324-.628.335-.011.804.178 1.324.628zm-10.04-11.08c-.328-.064-.53-.36-.764-.83.275.083.583.34.764.83zm7.42 8.92c-.228.124-.464-.053-.756-.497.244-.187.511-.033.756.497z" fill="#a07177"/><path d="M472.507 675.085c-.014-.08.024-.058 0-.065-.026-.006.014.145 0 .065zm1.99-2.01c.01-.07.04.015.01.013-.03 0-.019.058-.01-.013zm-.98.99c-.004-.076.02-.049-.006-.053-.026-.004.01.13.006.053zm-1.93 1.99c.006-.075-.014-.052-.035-.062-.02-.01.03.137.035.062z" fill="#b3a1a4"/><path fill="#a07177" d="M444.577 743.915c-.11.147-.415-.213-.425-.333-.01-.12.354-.13.354-.13s.18.316.071.463zm2.32 4.1c-.29.11-.487-.094-.647-.583.32-.185.554 0 .647.583z"/><path fill="#dfdede" d="M450.447 756.925c.02-.006-.226.36-.226.36s.02-.27.12-.332c.098-.063.086-.022.106-.028z"/></svg>
