<svg width="16" height="16" viewBox="0 0 16 16" fill="none" xmlns="http://www.w3.org/2000/svg">
<path d="M15.512 7.99918C15.512 12.148 12.1492 15.5116 8.00001 15.5116C3.85121 15.5116 0.488007 12.148 0.488007 7.99918C0.488007 3.84998 3.85121 0.487183 8.00001 0.487183C12.1492 0.487183 15.512 3.84998 15.512 7.99918V7.99918Z" fill="white"/>
<path d="M7.99999 0.350785C12.197 0.350785 15.6077 3.75332 15.6 7.94983C15.5988 8.78832 15.4656 9.59525 15.2143 10.35H12.9397V3.95647L7.99999 8.89597L3.05988 3.95647V10.35H0.785706C0.534774 9.59525 0.400809 8.78832 0.4 7.94983C0.394739 3.75737 3.80336 0.349976 7.99999 0.349976V0.350785Z" fill="#FF621F"/>
<path d="M6.88171 10.1728L8.00939 11.3563L9.13707 10.1728L11.2779 7.92596V12.1189H11.4511H12.9148H14.46C13.135 14.3999 10.7406 15.926 8.0098 15.926C5.27861 15.926 2.8846 14.4004 1.56 12.1194L3.10443 12.1189H3.92266H4.74089V7.92596L6.88171 10.1728V10.1728Z" fill="#454B4B"/>
</svg>
